<svg width="512" height="512" viewBox="0 0 512 512" fill="none" xmlns="http://www.w3.org/2000/svg">
<path d="M256 0C186.474 0 177.756 0.294695 150.451 1.54054C123.203 2.78436 104.593 7.1113 88.3089 13.4401C71.4747 19.9824 57.1983 28.7358 42.9665 42.9676C28.7348 57.1993 19.9813 71.4758 13.4391 88.31C7.11028 104.593 2.78334 123.203 1.53953 150.451C0.293679 177.756 0 186.474 0 256C0 325.524 0.293679 334.242 1.53953 361.547C2.78334 388.795 7.11028 407.405 13.4391 423.688C19.9813 440.522 28.7348 454.799 42.9665 469.032C57.1983 483.263 71.4747 492.017 88.3089 498.559C104.593 504.887 123.203 509.215 150.451 510.458C177.756 511.704 186.474 511.998 256 511.998C325.524 511.998 334.242 511.704 361.547 510.458C388.795 509.215 407.405 504.887 423.688 498.559C440.522 492.017 454.799 483.263 469.032 469.032C483.263 454.799 492.017 440.522 498.559 423.688C504.887 407.405 509.215 388.795 510.458 361.547C511.704 334.242 511.998 325.524 511.998 256C511.998 186.474 511.704 177.756 510.458 150.451C509.215 123.203 504.887 104.593 498.559 88.31C492.017 71.4758 483.263 57.1993 469.032 42.9676C454.799 28.7358 440.522 19.9824 423.688 13.4401C407.405 7.1113 388.795 2.78436 361.547 1.54054C334.242 0.294695 325.524 0 256 0ZM256 46.1269C324.354 46.1269 332.451 46.387 359.445 47.6187C384.404 48.7578 397.959 52.9283 406.98 56.4331C418.929 61.0771 427.457 66.6255 436.415 75.5832C445.374 84.5409 450.921 93.0698 455.565 105.018C459.071 114.039 463.241 127.594 464.38 152.554C465.611 179.548 465.872 187.645 465.872 256C465.872 324.354 465.611 332.451 464.38 359.445C463.241 384.404 459.071 397.959 455.565 406.98C450.921 418.929 445.374 427.457 436.415 436.415C427.457 445.374 418.929 450.921 406.98 455.565C397.959 459.071 384.404 463.241 359.445 464.38C332.455 465.611 324.359 465.872 256 465.872C187.639 465.872 179.545 465.611 152.554 464.38C127.594 463.241 114.039 459.071 105.018 455.565C93.0688 450.921 84.5409 445.374 75.5822 436.415C66.6245 427.457 61.0761 418.929 56.4331 406.98C52.9272 397.959 48.7568 384.404 47.6177 359.445C46.386 332.451 46.1259 324.354 46.1259 256C46.1259 187.645 46.386 179.548 47.6177 152.554C48.7568 127.594 52.9272 114.039 56.4331 105.018C61.0761 93.0698 66.6245 84.5409 75.5822 75.5832C84.5409 66.6255 93.0688 61.0771 105.018 56.4331C114.039 52.9283 127.594 48.7578 152.554 47.6187C179.548 46.387 187.645 46.1269 256 46.1269Z" fill="#8C8BB0"/>
<path d="M256 341.332C208.871 341.332 170.666 303.127 170.666 255.999C170.666 208.871 208.871 170.666 256 170.666C303.127 170.666 341.332 208.871 341.332 255.999C341.332 303.127 303.127 341.332 256 341.332ZM256 124.54C183.396 124.54 124.54 183.396 124.54 255.999C124.54 328.602 183.396 387.458 256 387.458C328.602 387.458 387.458 328.602 387.458 255.999C387.458 183.396 328.602 124.54 256 124.54Z" fill="#8C8BB0"/>
<path d="M423.372 119.346C423.372 136.313 409.618 150.066 392.652 150.066C375.686 150.066 361.932 136.313 361.932 119.346C361.932 102.38 375.686 88.627 392.652 88.627C409.618 88.627 423.372 102.38 423.372 119.346Z" fill="#8C8BB0"/>
</svg>
