<svg width="751" height="387" viewBox="0 0 751 387" fill="none" xmlns="http://www.w3.org/2000/svg">
<path d="M193.169 319.992L81.9801 306.926L84.2858 301.307C188.745 316.481 272.216 319.732 379.666 306.283C523.239 288.312 375.029 200.921 327.388 202.055C312.414 202.409 293.228 209.285 278.153 211.618C227.312 296.561 143.95 335.667 49.6311 249.809C-91.3112 121.511 219.381 -12.3468 449.549 58.3738C473.099 65.6104 495.128 76.4902 502.739 93.5799L489.601 96.2829L502.739 93.5884C513.088 129.461 461.57 156.34 419.643 173.808C441.231 208.705 461.548 260.562 497.616 288.797L495.08 289.091C517.209 261.825 504.255 47.6428 572.135 86.9753C625.841 118.094 674.521 305.586 709.938 323.52C720.535 311.591 723.07 296.549 726.639 283.356L726.093 283.319C727.348 277.727 726.583 264.365 734.899 260.515L741.026 263.366L731.715 264.204L740.276 264.764L740.959 264.81C713.714 390.195 684.111 314.601 644.921 236.667C634.713 216.367 582.074 101.069 556.34 94.845L556.87 94.7738C521.589 117.281 553.295 329.549 484.034 300.865C472.675 296.161 465.96 286.362 459.803 278.867C446.898 342.117 261.219 325.069 193.169 319.992ZM398.217 181.844L341.367 198.697C374.195 205.891 406.589 217.285 429.933 234.087L398.217 181.844ZM391.735 171.547C376.421 147.25 360.669 120.335 335.358 99.9113C315.044 129.173 304.998 161.68 289.232 191.977C330.61 193.745 323.842 201.87 391.735 171.547ZM348.768 84.0785C377.051 107.114 394.94 134.681 412.342 161.997C604.869 65.9528 314.909 43.2685 200.165 68.1454C53.4571 99.952 -19.093 201.318 114.035 268.102C182.016 302.203 222.651 254.199 248.113 215.649C220.598 218.461 194.807 218.037 168.026 214.576C197.457 202.569 227.904 193.814 262.175 192.139C272.367 174.009 305.655 88.8888 326.314 81.8727C334.981 78.929 341.739 81.3227 348.768 84.0785ZM286.154 197.644L282.136 204.895L308.436 199.252L286.154 197.644ZM252.07 209.436L258.839 198.079C235.848 199.546 213.261 204.213 192.549 211.469L252.07 209.436Z" fill="#8C8BB0"/>
</svg>
