<svg width="77" height="99" viewBox="0 0 77 99" fill="none" xmlns="http://www.w3.org/2000/svg">
<path d="M7.00747 91.0485L0 19.4558H77L69.9851 91.0373L38.4529 99L7.00747 91.0485Z" fill="#264DE4"/>
<path d="M63.9796 86.4793L69.9743 25.3096H38.5V92.9137L63.9796 86.4793Z" fill="#2965F1"/>
<path d="M16.0645 51.8622L16.9284 60.6427H38.5V51.8622H16.0645Z" fill="#EBEBEB"/>
<path d="M15.2047 42.8709H38.5V34.0903H38.4666H14.3284L15.2047 42.8709Z" fill="#EBEBEB"/>
<path d="M38.4556 83.8129L38.4999 83.8017V74.6662L38.4577 74.6765L27.722 72.036L27.0357 65.0331H21.819H17.3591L18.7096 78.8198L38.4556 83.8129Z" fill="#EBEBEB"/>
<path d="M18.1214 0H29.7966V4.44727H23.0038V8.89453H29.7966V13.3418H18.1214V0Z" fill="black"/>
<path d="M32.1317 0H43.8069V3.86719H37.014V4.64062H43.8069V13.5352H32.1317V9.47461H38.9245V8.70117H32.1317V0Z" fill="black"/>
<path d="M46.142 0H57.8172V3.86719H51.0243V4.64062H57.8172V13.5352H46.142V9.47461H52.9348V8.70117H46.142V0Z" fill="black"/>
<path d="M62.614 34.0903H38.4667V42.8709H52.0498L51.1727 51.8623H38.4667V60.6428H50.3368L49.2179 72.0305L38.4667 74.6737V83.8088L58.2284 78.8199L58.3733 77.3365L60.6386 54.2201L60.8738 51.8623L62.614 34.0903Z" fill="white"/>
</svg>
