<svg width="124" height="66" viewBox="0 0 124 66" fill="none" xmlns="http://www.w3.org/2000/svg">
<path d="M62 63.7511H65.3858C67.796 63.7511 70.0656 62.7775 71.5232 61.1159L93 36.6588L114.477 61.1159C115.934 62.775 118.204 63.7511 120.614 63.7511H124L96.601 32.5557L122.772 2.7511H119.386C116.976 2.7511 114.706 3.72471 113.249 5.38632L92.9971 28.4501L72.7427 5.38384C71.2851 3.72472 69.0155 2.7511 66.6052 2.7511H63.2195L89.3904 32.5557L62 63.7511Z" fill="#BFD0C3" fill-opacity="0.48"/>
<path d="M63 35.7497V28.2498C63 11.5626 45.9757 -1.65216 26.2624 1.1203C10.9162 3.27776 0 15.3925 0 28.9598V30.7498V35.7497V36.1047C0 52.4869 13.6796 65.5692 31.122 65.7491C45.7036 65.8991 58.0087 57.3893 61.783 45.752H58.8391C57.0637 45.752 55.4543 46.6395 54.684 48.0345C49.7041 57.0218 38.1064 62.6892 25.3947 60.1393C13.6767 57.7868 5.72727 48.202 5.72727 37.7071V35.7497H63ZM5.72727 30.0248C5.72727 18.255 13.7569 8.63266 25.5551 6.3302C42.3761 3.05026 57.2727 14.1301 57.2727 28.2498V30.7498H5.72727V30.0248Z" fill="#BFD0C3" fill-opacity="0.48"/>
</svg>
