<svg width="71" height="87" viewBox="0 0 71 87" fill="none" xmlns="http://www.w3.org/2000/svg">
<path d="M17.9691 87C27.8881 87 35.9383 80.504 35.9383 72.5V58H17.9691C8.05017 58 0 64.496 0 72.5C0 80.504 8.05017 87 17.9691 87Z" fill="#0ACF83"/>
<path d="M0 43.5C0 35.496 8.05017 29 17.9691 29H35.9383V58H17.9691C8.05017 58 0 51.504 0 43.5Z" fill="#A259FF"/>
<path d="M0 14.5C0 6.496 8.05017 0 17.9691 0H35.9383V29H17.9691C8.05017 29 0 22.504 0 14.5Z" fill="#F24E1E"/>
<path d="M35.9383 0H53.4692C63.1462 0 71 6.496 71 14.5C71 22.504 63.1462 29 53.4692 29H35.9383V0Z" fill="#FF7262"/>
<path d="M71 43.5C71 51.504 63.1462 58 53.4692 58C43.7921 58 35.9383 51.504 35.9383 43.5C35.9383 35.496 43.7921 29 53.4692 29C63.1462 29 71 35.496 71 43.5Z" fill="#1ABCFE"/>
</svg>
