<svg width="82" height="101" viewBox="0 0 82 101" fill="none" xmlns="http://www.w3.org/2000/svg">
<path d="M82 19L74.5296 92.7916L40.9499 101L7.46264 92.8029L0 19H82Z" fill="#E44D26"/>
<path d="M41 95L68.5246 88.4329L75 26H41V95Z" fill="#F16529"/>
<path d="M26.3317 44.0061H41V35H15L15.248 37.4162L17.7966 62.2347H41V53.2286H27.2794L26.3317 44.0061ZM28.6686 66.7379H18.2599L19.7125 80.8789L40.9523 86L41 85.9887V76.6185L40.9545 76.629L29.4069 73.9207L28.6686 66.7379Z" fill="#EBEBEB"/>
<path d="M7 0H12.3037V4.62313H17.1554V0H22.4595V14H17.1558V9.312H12.304V14H7.00033L7 0ZM29.4337 4.64274H24.7652V0H39.4097V4.64274H34.7383V14H29.4347V4.64274H29.4337ZM41.7338 0H47.2639L50.6658 4.91923L54.0643 0H59.5967V14H54.3146V7.06083L50.6658 12.0386H50.5743L46.9231 7.06083V14H41.7338V0ZM62.2362 0H67.5415V9.37254H75V14H62.2358V0H62.2362Z" fill="black"/>
<path d="M41.0003 62.237H53.7811L52.5761 73.9183L41 76.6296V86L62.2779 80.8827L62.4339 79.361L64.8733 55.6487L65.1264 53.2301H41.0003V62.237ZM41.0003 43.9849V44.0069H66.0709L66.2789 41.9825L66.752 37.4164L67 35H41.0003V43.9849Z" fill="white"/>
</svg>
