<svg width="80" height="102" viewBox="0 0 80 102" fill="none" xmlns="http://www.w3.org/2000/svg">
<path d="M80 20H40H0L7.49418 93.6577L40 102L72.4925 93.6577L80 20Z" fill="#E6A329"/>
<path d="M39 26V97L65.5382 90.1227L72 26H39Z" fill="#F1BF22"/>
<path d="M61.5876 36H19.8989L17 63.9291L17.0617 63.7521H52.4727L51.3145 75.5708L40.0203 78.4705L28.5547 75.5281L27.8625 68.3733H17.4523L18.9395 82.6645L40.0203 88L61.101 82.6645L64 54.6255H26.4233L26.903 45.2731H52.9867L53.3705 50.6269H63.8766L61.5876 36Z" fill="white"/>
<path d="M39 36H19.7639L17 63.9356L17.0589 63.7647H39V54.6177H27.3942L27.8526 45.263H38.9869L39 36ZM27.3811 68.3626H17.4323L18.8535 82.706L39 88V78.4805L28.0426 75.5373L27.3811 68.3626Z" fill="#EBEBEB"/>
<path d="M31.9907 9.29242H25V14H31.9907H35.7379H37V0H31.9907V9.29242Z" fill="black"/>
<path d="M54 0H43V4.96014C44.4686 6.51019 45.2413 7.24801 47.3705 9.48627H43V14H54V9.48627L49.6059 4.95394H54V0Z" fill="black"/>
</svg>
