<svg width="93" height="87" viewBox="0 0 93 87" fill="none" xmlns="http://www.w3.org/2000/svg">
<path d="M16.4672 0H76.5328C85.6369 0 93 7.0644 93 15.7992V71.2008C93 79.9356 85.6369 87 76.5328 87H16.4672C7.36311 87 0 79.9356 0 71.2008V15.7992C0 7.0644 7.36311 0 16.4672 0Z" fill="black"/>
<path d="M48.8214 61.4916H24.2656C23.8304 61.4916 23.649 61.2828 23.649 60.8304V22.8288C23.6127 22.5852 23.7941 22.3416 24.0843 22.3068C24.1205 22.3068 24.1568 22.3068 24.2294 22.3068H31.8101C31.9914 22.272 32.2453 22.4112 32.2453 22.62C32.2453 22.6548 32.2453 22.6896 32.2453 22.7244V53.94H50.1634C50.5624 53.94 50.6712 54.114 50.5987 54.462L49.4743 60.9348C49.4743 61.1088 49.3655 61.2828 49.2567 61.3872C49.1116 61.4568 48.9665 61.4916 48.8214 61.4916Z" fill="#31A8FF"/>
<path d="M55.0237 31.7376H61.8065C62.2055 31.7376 62.4957 31.9812 62.6045 32.3292C62.7496 32.5728 62.8584 32.886 62.9309 33.1992C63.0035 33.582 63.076 33.9648 63.1123 34.3476C63.1486 34.7652 63.1848 35.2176 63.1848 35.67C64.3455 34.3824 65.7601 33.3036 67.3198 32.4684C69.0971 31.5288 71.092 31.0764 73.0869 31.146C73.3408 31.1112 73.5947 31.2852 73.631 31.5636C73.631 31.5984 73.631 31.6332 73.631 31.7028V38.976C73.631 39.2892 73.4496 39.3936 73.0144 39.3936C70.5117 39.2544 67.9727 39.7068 65.6876 40.6464C64.9259 40.9944 64.1642 41.412 63.5838 42.0384V61.0044C63.5838 61.3872 63.4387 61.5264 63.076 61.5264H55.5316C55.2051 61.5612 54.9512 61.3872 54.9149 61.074C54.9149 61.0392 54.9149 60.9696 54.9149 60.9348V40.3332C54.9149 39.4284 54.9149 38.5236 54.8787 37.5492C54.8424 36.5748 54.8424 35.6004 54.8061 34.6608C54.7699 33.8256 54.6973 33.0252 54.5885 32.19C54.5522 32.016 54.661 31.8072 54.8424 31.7724C54.9149 31.7028 54.9512 31.7028 55.0237 31.7376Z" fill="#31A8FF"/>
</svg>
