<svg width="104" height="89" viewBox="0 0 104 89" fill="none" xmlns="http://www.w3.org/2000/svg">
<g clip-path="url(#clip0_46_88)">
<path d="M52 89C80.7188 89 104 69.0767 104 44.5C104 19.9233 80.7188 0 52 0C23.2812 0 0 19.9233 0 44.5C0 69.0767 23.2812 89 52 89Z" fill="#13AA52"/>
<path d="M65.8998 39.0627C62.6153 26.6574 54.8529 22.5785 54.017 21.0202C53.103 19.9207 52.1767 17.9651 52.1767 17.9651C52.1615 17.9321 52.1371 17.8739 52.1087 17.8174C52.0142 18.9168 51.9655 19.341 50.7508 20.45C48.8698 21.7085 39.2194 28.6382 38.4343 42.7322C37.702 55.8771 49.53 63.7097 51.1296 64.7084L51.3114 64.8188V64.8092C51.3215 64.8753 51.8192 67.9381 52.1686 71.1835H53.4219C53.7159 68.8894 54.1567 66.6109 54.7422 64.3581L54.8437 64.3016C55.5593 63.8626 56.2415 63.385 56.8862 62.8719L56.9593 62.8154C60.3596 60.1271 66.4726 53.9093 66.4127 43.9959C66.4001 42.3422 66.2285 40.6923 65.8998 39.0627ZM52.0355 57.2868C52.0355 57.2868 52.0355 38.8506 52.7465 38.8541C53.301 38.8541 54.019 62.6346 54.019 62.6346C53.0319 62.5329 52.0355 58.7209 52.0355 57.2868Z" fill="white"/>
</g>
<defs>
<clipPath id="clip0_46_88">
<rect width="104" height="89" fill="white"/>
</clipPath>
</defs>
</svg>
