<svg width="107" height="95" viewBox="0 0 107 95" fill="none" xmlns="http://www.w3.org/2000/svg">
<path d="M48.6498 1.01486C51.6072 -0.335305 55.3779 -0.341266 58.2614 1.01486L102.416 21.0826C105.177 22.3344 107.026 24.8171 107 27.3833V67.6201C107.018 70.2936 104.989 72.83 102.076 74.0579L58.1579 94.0332C56.6557 94.7025 54.9588 95.0353 53.2432 94.997C51.5276 94.9588 49.856 94.5509 48.4021 93.8157L35.2231 87.6758C34.3247 87.2437 33.3155 86.9009 32.6797 86.2005C33.2416 85.5925 34.2397 85.515 35.053 85.2467C36.8866 84.7758 38.5649 84.0545 40.2507 83.2915C40.6758 83.0531 41.197 83.1425 41.6037 83.3571L52.8419 88.5968C53.6441 88.9694 54.4574 88.4776 55.145 88.1646L98.2679 68.544C98.8003 68.3354 99.096 67.8823 99.0517 67.4114V27.5622C99.1108 27.0257 98.73 26.5369 98.1275 26.3193L54.3206 6.43043C54.0682 6.28965 53.7686 6.21399 53.4617 6.21346C53.1547 6.21292 52.8548 6.28755 52.6016 6.42745L8.85761 26.358C8.26613 26.5756 7.85948 27.0585 7.93342 27.5949V67.4442C7.88166 67.9151 8.19219 68.3592 8.72823 68.5619L20.4174 73.8821C22.6133 74.8358 25.3083 75.3723 27.726 74.6719C28.784 74.3504 29.6948 73.7759 30.3364 73.0253C30.9779 72.2747 31.3196 71.384 31.3156 70.4724L31.3266 30.8616C31.2749 30.2744 31.9625 29.7886 32.6686 29.8482H38.2877C39.027 29.8333 39.6074 30.4652 39.5076 31.0553L39.4965 70.9165C39.5002 74.4573 37.6962 78.3081 33.6334 80.0458C28.628 82.1321 22.4396 81.694 17.4933 79.6881L4.92424 74.0848C1.96681 72.8926 -0.0183559 70.3174 0.000127988 67.6469V27.4102C0.0124247 26.1024 0.458344 24.8211 1.29166 23.6991C2.12498 22.577 3.31536 21.6551 4.7394 21.0289L48.6498 1.01486ZM61.3815 28.9064C67.7658 28.6083 74.6011 28.7097 80.3459 31.2461C84.7932 33.1893 87.2589 37.2667 87.3403 41.2546C87.2146 41.7911 86.5196 42.0891 85.8837 42.0504C84.0353 42.0474 82.1796 42.0712 80.3238 42.0414C79.5364 42.0653 79.0816 41.4811 78.9818 40.9208C78.4495 39.0132 77.1593 37.1266 74.9339 36.2056C71.518 34.8256 67.5551 34.8942 63.8287 34.924C61.1079 35.0432 58.1838 35.231 55.8807 36.5186C54.1062 37.4962 53.5739 39.4991 54.206 41.0549C54.7975 42.1964 56.4352 42.563 57.7697 42.9028C65.4664 44.5242 73.6178 44.393 81.1703 46.5002C84.2941 47.3706 87.3513 49.0635 88.4234 51.7012C89.8208 55.2361 89.2108 59.4624 86.0944 62.2999C83.5658 64.6366 79.8839 65.8765 76.2056 66.5977C71.3147 67.477 66.2427 67.4979 61.278 67.1044C56.6089 66.6752 51.7514 65.6857 48.147 63.1225C45.0639 60.9646 43.563 57.6026 43.7109 54.3598C43.7478 53.8114 44.4243 53.4299 45.0787 53.4746H50.6238C51.3706 53.4329 51.9177 53.9515 51.9547 54.5178C52.2985 56.3061 53.145 58.2434 55.1117 59.2866C58.9046 61.2597 63.6624 61.1226 68.0024 61.1792C71.5994 61.051 75.6362 61.0123 78.5752 59.0929C80.1278 57.999 80.5825 56.172 80.1648 54.5983C79.7101 53.269 77.9467 52.652 76.468 52.2139C68.8711 50.2765 60.6273 50.9799 53.1044 48.7863C50.0508 47.916 47.0971 46.2708 45.9252 43.7403C44.2876 40.1637 45.038 35.7317 48.4871 32.9896C51.8142 30.2625 56.6939 29.2104 61.3149 28.8348L61.3815 28.9064Z" fill="#8CC84B"/>
</svg>
